<?xml version="1.0" encoding="UTF-8" standalone="no"?>
<svg
   xmlns:dc="http://purl.org/dc/elements/1.1/"
   xmlns:cc="http://creativecommons.org/ns#"
   xmlns:rdf="http://www.w3.org/1999/02/22-rdf-syntax-ns#"
   xmlns:svg="http://www.w3.org/2000/svg"
   xmlns="http://www.w3.org/2000/svg"
   xmlns:xlink="http://www.w3.org/1999/xlink"
   xmlns:sodipodi="http://sodipodi.sourceforge.net/DTD/sodipodi-0.dtd"
   xmlns:inkscape="http://www.inkscape.org/namespaces/inkscape"
   inkscape:export-ydpi="90.000000"
   inkscape:export-xdpi="90.000000"
   width="480"
   height="300"
   id="svg11300"
   sodipodi:version="0.32"
   inkscape:version="1.0.1 (3bc2e813f5, 2020-09-07)"
   sodipodi:docname="kmousetool_off.svg"
   inkscape:output_extension="org.inkscape.output.svg.inkscape"
   version="1.0"
   style="display:inline;enable-background:new"
   inkscape:export-filename="/home/sam/moka-next-template.png">
  <sodipodi:namedview
     stroke="#ef2929"
     fill="#f57900"
     id="base"
     pagecolor="#777777"
     bordercolor="#666666"
     borderopacity="0.25490196"
     inkscape:pageopacity="0"
     inkscape:pageshadow="2"
     inkscape:zoom="1"
     inkscape:cx="-123.7136"
     inkscape:cy="237.27589"
     inkscape:current-layer="layer6"
     showgrid="false"
     inkscape:grid-bbox="true"
     inkscape:document-units="px"
     inkscape:showpageshadow="false"
     inkscape:window-width="1920"
     inkscape:window-height="1013"
     inkscape:window-x="0"
     inkscape:window-y="0"
     width="400px"
     height="300px"
     inkscape:snap-nodes="true"
     inkscape:snap-bbox="true"
     gridtolerance="10000"
     inkscape:object-nodes="true"
     inkscape:snap-grids="true"
     showguides="true"
     inkscape:guide-bbox="true"
     inkscape:window-maximized="1"
     inkscape:bbox-nodes="true"
     inkscape:bbox-paths="true"
     inkscape:snap-bbox-edge-midpoints="true"
     inkscape:snap-bbox-midpoints="true"
     inkscape:document-rotation="0">
    <inkscape:grid
       spacingy="1"
       spacingx="1"
       id="grid5883"
       type="xygrid"
       enabled="true"
       visible="true"
       empspacing="4"
       snapvisiblegridlinesonly="true"
       dotted="false"
       color="#000000"
       opacity="0.1254902"
       empcolor="#203ef3"
       empopacity="0.36470588"
       originx="0"
       originy="0" />
    <inkscape:grid
       type="xygrid"
       id="grid11592"
       empspacing="8"
       visible="true"
       enabled="false"
       spacingx="0.5"
       spacingy="0.5"
       color="#ff0000"
       opacity="0.1254902"
       empcolor="#ff0000"
       empopacity="0.25098039"
       snapvisiblegridlinesonly="true"
       dotted="true"
       originx="0"
       originy="0" />
  </sodipodi:namedview>
  <defs
     id="defs3">
    <linearGradient
       inkscape:collect="always"
       xlink:href="#outerBackgroundGradient-0"
       id="linearGradient4254"
       x1="35"
       y1="156"
       x2="253"
       y2="156"
       gradientUnits="userSpaceOnUse"
       gradientTransform="matrix(0,-1,1,0,-12,300)" />
    <linearGradient
       inkscape:collect="always"
       xlink:href="#outerBackgroundGradient-0"
       id="linearGradient4256"
       x1="417"
       y1="148"
       x2="431"
       y2="148"
       gradientUnits="userSpaceOnUse"
       gradientTransform="matrix(0,-1,1,0,276,572)" />
    <linearGradient
       inkscape:collect="always"
       xlink:href="#outerBackgroundGradient-0"
       id="linearGradient4260"
       x1="418"
       y1="68"
       x2="446"
       y2="68"
       gradientUnits="userSpaceOnUse"
       gradientTransform="matrix(0,-1,1,0,364,500)" />
    <linearGradient
       inkscape:collect="always"
       xlink:href="#outerBackgroundGradient-0"
       id="linearGradient4262"
       x1="292"
       y1="244"
       x2="332"
       y2="244"
       gradientUnits="userSpaceOnUse"
       gradientTransform="matrix(0,-1,1,0,68,556)" />
    <linearGradient
       inkscape:collect="always"
       xlink:href="#outerBackgroundGradient-0"
       id="linearGradient4264"
       x1="293"
       y1="76"
       x2="379"
       y2="76"
       gradientUnits="userSpaceOnUse"
       gradientTransform="matrix(0,-1,1,0,260,412)" />
    <linearGradient
       inkscape:collect="always"
       xlink:href="#outerBackgroundGradient-0"
       id="linearGradient4266"
       x1="291"
       y1="172"
       x2="349"
       y2="172"
       gradientUnits="userSpaceOnUse"
       gradientTransform="matrix(0,-1,1,0,148,492)" />
    <linearGradient
       inkscape:collect="always"
       xlink:href="#outerBackgroundGradient-0"
       id="linearGradient3870"
       gradientUnits="userSpaceOnUse"
       gradientTransform="matrix(0,-1,1,0,316,540)"
       x1="418"
       y1="112"
       x2="438"
       y2="112" />
    <linearGradient
       id="outerBackgroundGradient-0">
      <stop
         style="stop-color:#bd251d;stop-opacity:1;"
         offset="0"
         id="stop3864-8-6-1" />
      <stop
         style="stop-color:#e22c1e;stop-opacity:1;"
         offset="1"
         id="stop3866-9-1-5" />
    </linearGradient>
    <linearGradient
       id="linearGradient3880-07">
      <stop
         style="stop-color:#ffffff;stop-opacity:1;"
         offset="0"
         id="stop3882-06" />
      <stop
         style="stop-color:#ffffff;stop-opacity:1;"
         offset="1"
         id="stop3884-59" />
    </linearGradient>
    <linearGradient
       inkscape:collect="always"
       xlink:href="#linearGradient3880-07"
       id="linearGradient4002"
       gradientUnits="userSpaceOnUse"
       gradientTransform="matrix(0,-1,-1,0,535.5,705)"
       x1="544"
       y1="100"
       x2="568"
       y2="100" />
  </defs>
  <metadata
     id="metadata4">
    <rdf:RDF>
      <cc:Work
         rdf:about="">
        <dc:format>image/svg+xml</dc:format>
        <dc:type
           rdf:resource="http://purl.org/dc/dcmitype/StillImage" />
        <dc:creator>
          <cc:Agent>
            <dc:title>Sam Hewitt</dc:title>
          </cc:Agent>
        </dc:creator>
        <dc:source />
        <cc:license
           rdf:resource="" />
        <dc:title />
        <dc:subject>
          <rdf:Bag />
        </dc:subject>
        <dc:date />
        <dc:rights>
          <cc:Agent>
            <dc:title />
          </cc:Agent>
        </dc:rights>
        <dc:publisher>
          <cc:Agent>
            <dc:title />
          </cc:Agent>
        </dc:publisher>
        <dc:identifier />
        <dc:relation />
        <dc:language />
        <dc:coverage />
        <dc:description />
        <dc:contributor>
          <cc:Agent>
            <dc:title />
          </cc:Agent>
        </dc:contributor>
      </cc:Work>
      <cc:Work
         rdf:about="">
        <dc:format>image/svg+xml</dc:format>
        <dc:type
           rdf:resource="http://purl.org/dc/dcmitype/StillImage" />
      </cc:Work>
    </rdf:RDF>
  </metadata>
  <g
     style="display:inline"
     inkscape:groupmode="layer"
     inkscape:label="Icon"
     id="layer1">
    <g
       style="display:none"
       inkscape:label="Baseplate"
       id="layer7"
       inkscape:groupmode="layer">
      <text
         y="19.745117"
         xml:space="preserve"
         x="15.006836"
         style="font-style:normal;font-variant:normal;font-weight:normal;font-stretch:normal;line-height:0%;font-family:'DejaVu Sans';-inkscape-font-specification:'DejaVu Sans';display:inline;fill:#000000;fill-opacity:1;stroke:none;enable-background:new"
         inkscape:label="context"
         id="context"><tspan
           style="font-style:normal;font-variant:normal;font-weight:normal;font-stretch:normal;font-size:18px;line-height:1.25;font-family:'DejaVu Sans';-inkscape-font-specification:'DejaVu Sans'"
           y="19.745117"
           x="15.006836"
           sodipodi:role="line"
           id="tspan3933">actions</tspan></text>
      <text
         y="19.745117"
         xml:space="preserve"
         x="122.48828"
         style="font-style:normal;font-variant:normal;font-weight:bold;font-stretch:normal;line-height:0%;font-family:'DejaVu Sans';-inkscape-font-specification:'DejaVu Sans Bold';text-align:start;writing-mode:lr-tb;text-anchor:start;display:inline;fill:#000000;fill-opacity:1;stroke:none;enable-background:new"
         inkscape:label="icon-name"
         id="icon-name"><tspan
           style="font-style:normal;font-variant:normal;font-weight:bold;font-stretch:normal;font-size:18px;line-height:1.25;font-family:'DejaVu Sans';-inkscape-font-specification:'DejaVu Sans Bold'"
           y="19.745117"
           x="122.48828"
           sodipodi:role="line"
           id="tspan3937">kmousetool_off</tspan></text>
      <rect
         style="fill:#eeeeec;fill-opacity:1;fill-rule:nonzero;stroke:none;stroke-width:2;marker:none;visibility:visible;display:inline;overflow:visible;enable-background:accumulate"
         id="rect16x16"
         width="16"
         height="16"
         x="416"
         y="140"
         inkscape:label="16x16" />
      <rect
         style="fill:#d4d4d4;fill-opacity:1;fill-rule:nonzero;stroke:none;stroke-width:2;marker:none;visibility:visible;display:inline;overflow:visible;enable-background:accumulate"
         id="rect24x24"
         width="24"
         height="24"
         x="416"
         y="100"
         inkscape:label="24x24" />
      <rect
         style="fill:#eeeeec;fill-opacity:1;fill-rule:nonzero;stroke:none;stroke-width:2;marker:none;visibility:visible;display:inline;overflow:visible;enable-background:accumulate"
         id="rect32x32"
         width="32"
         height="32"
         x="416"
         y="52"
         inkscape:label="32x32" />
      <rect
         inkscape:label="22x22"
         y="101"
         x="417"
         height="22"
         width="22"
         id="rect22x22"
         style="fill:#eeeeec;fill-opacity:1;fill-rule:nonzero;stroke:none;stroke-width:2;marker:none;visibility:visible;display:inline;overflow:visible;enable-background:accumulate" />
      <rect
         inkscape:label="48x48"
         y="220"
         x="288"
         height="48"
         width="48"
         id="rect48x48"
         style="fill:#eeeeec;fill-opacity:1;fill-rule:nonzero;stroke:none;stroke-width:2;marker:none;visibility:visible;display:inline;overflow:visible;enable-background:accumulate" />
      <rect
         style="fill:#eeeeec;fill-opacity:1;fill-rule:nonzero;stroke:none;stroke-width:2;marker:none;visibility:visible;display:inline;overflow:visible;enable-background:accumulate"
         id="rect256x256"
         width="256"
         height="256"
         x="16"
         y="28"
         inkscape:label="256x256" />
      <rect
         style="fill:#eeeeec;fill-opacity:1;fill-rule:nonzero;stroke:none;stroke-width:2;marker:none;visibility:visible;display:inline;overflow:visible;enable-background:accumulate"
         id="rect64x64"
         width="64"
         height="64"
         x="288"
         y="140"
         inkscape:label="64x64" />
      <rect
         style="fill:#eeeeec;fill-opacity:1;fill-rule:nonzero;stroke:none;stroke-width:2;marker:none;visibility:visible;display:inline;overflow:visible;enable-background:accumulate"
         id="rect96x96"
         width="96"
         height="96"
         x="288"
         y="28"
         inkscape:label="96x96" />
    </g>
    <g
       inkscape:groupmode="layer"
       id="layer4"
       inkscape:label="Shadow"
       style="display:inline"
       sodipodi:insensitive="true">
      <rect
         ry="50"
         y="47"
         x="34"
         height="220"
         width="220"
         id="rect4114"
         style="opacity:0.1;color:#bebebe;fill:#000000;fill-opacity:1;fill-rule:nonzero;stroke:none;stroke-width:0;marker:none;visibility:visible;display:inline;overflow:visible;enable-background:accumulate" />
      <rect
         style="opacity:0.1;color:#bebebe;fill:#000000;fill-opacity:1;fill-rule:nonzero;stroke:none;stroke-width:0;marker:none;visibility:visible;display:inline;overflow:visible;enable-background:accumulate"
         id="rect4120"
         width="30"
         height="30"
         x="417"
         y="54"
         ry="7" />
      <rect
         transform="scale(1,-1)"
         ry="9"
         y="-266"
         x="291"
         height="42"
         width="42"
         id="rect4122"
         style="opacity:0.1;color:#bebebe;fill:#000000;fill-opacity:1;fill-rule:nonzero;stroke:none;stroke-width:0;marker:none;visibility:visible;display:inline;overflow:visible;enable-background:accumulate" />
      <rect
         style="opacity:0.1;color:#bebebe;fill:#000000;fill-opacity:1;fill-rule:nonzero;stroke:none;stroke-width:0;marker:none;visibility:visible;display:inline;overflow:visible;enable-background:accumulate"
         id="rect4124"
         width="88"
         height="88"
         x="292"
         y="33"
         ry="18" />
      <rect
         ry="12.5"
         y="143"
         x="290"
         height="60"
         width="60"
         id="rect4126"
         style="opacity:0.1;color:#bebebe;fill:#000000;fill-opacity:1;fill-rule:nonzero;stroke:none;stroke-width:0;marker:none;visibility:visible;display:inline;overflow:visible;enable-background:accumulate" />
      <path
         id="path4268"
         d="m 422,101 c -2.77,0 -5,2.23 -5,5 l 0,12 c 0,2.77 2.23,5 5,5 l 12,0 c 2.77,0 5,-2.23 5,-5 l 0,-12 c 0,-2.77 -2.23,-5 -5,-5 z"
         style="opacity:0.1;color:#bebebe;fill:#000000;fill-opacity:1;fill-rule:nonzero;stroke:none;stroke-width:0;marker:none;visibility:visible;display:inline;overflow:visible;enable-background:accumulate"
         inkscape:connector-curvature="0"
         sodipodi:nodetypes="sssssssss" />
      <path
         id="path4270"
         d="m 419,140 c -1.662,0 -3,1.338 -3,3 l 0,10 c 0,1.662 1.338,3 3,3 l 10,0 c 1.662,0 3,-1.338 3,-3 l 0,-10 c 0,-1.662 -1.338,-3 -3,-3 z"
         style="opacity:0.1;color:#bebebe;fill:#000000;fill-opacity:1;fill-rule:nonzero;stroke:none;stroke-width:0;marker:none;visibility:visible;display:inline;overflow:visible;enable-background:accumulate"
         inkscape:connector-curvature="0"
         sodipodi:nodetypes="sssssssss" />
    </g>
    <g
       inkscape:groupmode="layer"
       id="layer2"
       inkscape:label="Background"
       style="display:inline">
      <path
         style="color:#bebebe;fill:url(#linearGradient4254);fill-opacity:1.0;fill-rule:nonzero;stroke:none;stroke-width:2;marker:none;visibility:visible;display:inline;overflow:visible;enable-background:accumulate"
         d="M 84 46.5 C 56.568735 46.5 34.5 68.568732 34.5 96 L 34.5 216 C 34.5 243.43127 56.568735 265.5 84 265.5 L 204 265.5 C 231.43127 265.5 253.5 243.43127 253.5 216 L 253.5 96 C 253.5 68.568732 231.43127 46.5 204 46.5 L 84 46.5 z "
         id="path4200" />
      <path
         style="color:#bebebe;fill:url(#linearGradient4256);fill-opacity:1.0;fill-rule:nonzero;stroke:none;stroke-width:2;marker:none;visibility:visible;display:inline;overflow:visible;enable-background:accumulate"
         d="M 419 140.5 C 417.6156 140.5 416.5 141.6156 416.5 143 L 416.5 153 C 416.5 154.3844 417.6156 155.5 419 155.5 L 429 155.5 C 430.3844 155.5 431.5 154.3844 431.5 153 L 431.5 143 C 431.5 141.6156 430.3844 140.5 429 140.5 L 419 140.5 z "
         id="path4202" />
      <path
         style="color:#bebebe;fill:url(#linearGradient3870);fill-opacity:1.0;fill-rule:nonzero;stroke:none;stroke-width:2;marker:none;visibility:visible;display:inline;overflow:visible;enable-background:accumulate"
         d="M 422 101.5 C 419.50301 101.5 417.5 103.50301 417.5 106 L 417.5 118 C 417.5 120.49699 419.50301 122.5 422 122.5 L 434 122.5 C 436.49699 122.5 438.5 120.49699 438.5 118 L 438.5 106 C 438.5 103.50301 436.49699 101.5 434 101.5 L 422 101.5 z "
         id="path4204" />
      <path
         style="color:#bebebe;fill:url(#linearGradient4260);fill-opacity:1.0;fill-rule:nonzero;stroke:none;stroke-width:2;marker:none;visibility:visible;display:inline;overflow:visible;enable-background:accumulate"
         d="M 424 53.5 C 420.39346 53.5 417.5 56.393464 417.5 60 L 417.5 76 C 417.5 79.606536 420.39346 82.5 424 82.5 L 440 82.5 C 443.60654 82.5 446.5 79.606536 446.5 76 L 446.5 60 C 446.5 56.393464 443.60654 53.5 440 53.5 L 424 53.5 z "
         id="path4206" />
      <path
         style="color:#bebebe;fill:url(#linearGradient4262);fill-opacity:1.0;fill-rule:nonzero;stroke:none;stroke-width:2;marker:none;visibility:visible;display:inline;overflow:visible;enable-background:accumulate"
         d="M 300 223.5 C 295.28469 223.5 291.5 227.28469 291.5 232 L 291.5 256 C 291.5 260.71531 295.28469 264.5 300 264.5 L 324 264.5 C 328.71531 264.5 332.5 260.71531 332.5 256 L 332.5 232 C 332.5 227.28469 328.71531 223.5 324 223.5 L 300 223.5 z "
         id="path4208" />
      <path
         style="color:#bebebe;fill:url(#linearGradient4264);fill-opacity:1.0;fill-rule:nonzero;stroke:none;stroke-width:2;marker:none;visibility:visible;display:inline;overflow:visible;enable-background:accumulate"
         d="M 310 32.5 C 300.29745 32.5 292.5 40.297452 292.5 50 L 292.5 102 C 292.5 111.70255 300.29745 119.5 310 119.5 L 362 119.5 C 371.70255 119.5 379.5 111.70255 379.5 102 L 379.5 50 C 379.5 40.297452 371.70255 32.5 362 32.5 L 310 32.5 z "
         id="path4210" />
      <path
         style="color:#bebebe;fill:url(#linearGradient4266);fill-opacity:1.0;fill-rule:nonzero;stroke:none;stroke-width:2;marker:none;visibility:visible;display:inline;overflow:visible;enable-background:accumulate"
         d="M 302.5 142.5 C 295.84498 142.5 290.5 147.84498 290.5 154.5 L 290.5 189.5 C 290.5 196.15502 295.84498 201.5 302.5 201.5 L 337.5 201.5 C 344.15502 201.5 349.5 196.15502 349.5 189.5 L 349.5 154.5 C 349.5 147.84498 344.15502 142.5 337.5 142.5 L 302.5 142.5 z "
         id="path4212" />
      <rect
         style="opacity:1;fill:#fffffd;fill-opacity:1;stroke-width:1.0042"
         id="rect1207"
         width="0.1"
         height="15"
         x="318"
         y="17" />
    </g>
    <g
       inkscape:groupmode="layer"
       id="layer6"
       inkscape:label="Symbols"
       style="display:inline">
      <path
         id="path1103"
         style="display:inline;fill:#000000;fill-opacity:1;fill-rule:evenodd;stroke-width:0.10247;enable-background:new;opacity:0.2"
         d="M 312.85,246 H 316 v 9 h -3.15 z m -5.85,0 h 3.15 v 9 H 307 Z m 4,-15 c -4.25189,0 -8,4.24651 -8,10 v 8 c 0,5.75349 3.74811,10 8,10 h 1 c 4.25189,0 8,-4.24651 8,-10 v -8 c 0,-5.75349 -3.74811,-10 -8,-10 v 1.5 0.5 0.0625 c 1.14126,0.23235 2,1.22563 2,2.4375 v 3 c 0,1.21187 -0.85874,2.20515 -2,2.4375 V 241 v 0.5 1.5 c 0,0.55228 0.0523,1 -0.5,1 -0.55228,0 -0.5,-0.44772 -0.5,-1 v -1.5 -0.5 -0.0625 c -1.14126,-0.23235 -2,-1.22563 -2,-2.4375 v -3 c 0,-1.21187 0.85874,-2.20515 2,-2.4375 V 233 232.5 Z m 0.5,3 c -0.831,0 -1.5,0.669 -1.5,1.5 v 3 c 0,0.831 0.669,1.5 1.5,1.5 0.831,0 1.5,-0.669 1.5,-1.5 v -3 c 0,-0.831 -0.669,-1.5 -1.5,-1.5 z" />
      <path
         id="path1046"
         style="display:inline;fill:#000000;fill-opacity:1;fill-rule:evenodd;stroke-width:0.238825;enable-background:new;opacity:0.2"
         d="m 339.3,79 h 7.7 v 20 h -7.7 z M 325,79 h 7.7 V 99 H 325 Z M 335.00001,45 C 323.92003,45 315,55.704005 315,68.999999 v 16 C 315,98.295995 323.92003,109 335.00001,109 H 337 c 11.07994,0 20,-10.704005 20,-24.000001 v -16 C 357,55.704005 348.07994,45 337,45 v 6.999977 1.000022 0.124958 c 2.28254,0.464756 4,2.451261 4,4.875065 v 5.999955 c 0,2.423805 -1.71746,4.41031 -4,4.875065 V 68.999999 70.000023 73 c 0,1.104522 0.10459,1.999995 -0.99997,1.999995 -1.10462,0 -1.00001,-0.895473 -1.00001,-1.999995 V 70.000023 68.999999 68.875042 C 332.71753,68.410287 331,66.423782 331,63.999977 v -5.999955 c 0,-2.423804 1.71752,-4.410309 4.00002,-4.875065 V 52.999999 51.999977 45 Z m 1.00002,10.000005 c -1.66207,0 -3.00003,1.337955 -3.00003,3.000017 v 5.999955 c 0,1.662063 1.33796,3.000028 3.00003,3.000028 1.66197,0 2.99997,-1.337965 2.99997,-3.000028 v -5.999955 c 0,-1.662062 -1.338,-3.000017 -2.99997,-3.000017 z" />
      <path
         id="rect1199"
         style="opacity:0.2;fill:#000000;fill-opacity:1"
         d="m 421.5,153 h 4 v 1 h -4 z m 1.5,-10 c -2.12594,0 -4,2.12325 -4,5 v 2 c 0,2.87675 1.87406,5 4,5 h 1 c 2.12594,0 4,-2.12325 4,-5 v -2 c 0,-2.87675 -1.87406,-5 -4,-5 v 1 c 0.554,0 1,0.446 1,1 v 2 c 0,0.554 -0.446,1 -1,1 v 1 c 0,0.27614 -0.22386,0.5 -0.5,0.5 -0.27614,0 -0.5,-0.22386 -0.5,-0.5 v -1 c -0.554,0 -1,-0.446 -1,-1 v -2 c 0,-0.554 0.446,-1 1,-1 z m 0.5,2 c -0.277,0 -0.5,0.223 -0.5,0.5 v 1 c 0,0.277 0.223,0.5 0.5,0.5 0.277,0 0.5,-0.223 0.5,-0.5 v -1 c 0,-0.277 -0.223,-0.5 -0.5,-0.5 z m -2,5 h 4 v 4 h -4 z" />
      <path
         id="path3997"
         style="color:#bebebe;fill:url(#linearGradient4002);fill-opacity:1;fill-rule:nonzero;stroke:none;stroke-width:1.20000005;marker:none;visibility:visible;display:inline;overflow:visible;filter:url(#filter7554);enable-background:accumulate"
         d="m 423,142 c -2.12594,0 -4,2.12325 -4,5 v 2 c 0,2.87675 1.87406,5 4,5 h 1 c 2.12594,0 4,-2.12325 4,-5 v -2 c 0,-2.87675 -1.87406,-5 -4,-5 v 1 c 0.554,0 1,0.446 1,1 v 2 c 0,0.554 -0.446,1 -1,1 v 1 c 0,0.27614 -0.22386,0.5 -0.5,0.5 -0.27614,0 -0.5,-0.22386 -0.5,-0.5 v -1 c -0.554,0 -1,-0.446 -1,-1 v -2 c 0,-0.554 0.446,-1 1,-1 z m 0.5,2 c -0.277,0 -0.5,0.223 -0.5,0.5 v 1 c 0,0.277 0.223,0.5 0.5,0.5 0.277,0 0.5,-0.223 0.5,-0.5 v -1 c 0,-0.277 -0.223,-0.5 -0.5,-0.5 z m -2,5 h 4 v 4 h -4 z" />
      <path
         id="path1021"
         style="display:inline;fill:#000000;fill-opacity:1;fill-rule:evenodd;stroke-width:0.569275;enable-background:new;opacity:0.2"
         d="M 151.50001,166 H 169 v 50 H 151.50001 Z M 119,166 h 17.50001 v 50 H 119 Z m 22.5,-89 c -27.6999,0 -50,26.76 -50,60 v 40 c 0,33.24 22.3001,60 50,60 h 5 c 27.6999,0 50,-26.76 50,-60 v -40 c 0,-33.24 -22.3001,-60 -50,-60 v 19 1 0.25 c 5.72129,1.15027 10,6.18004 10,12.25 v 15 c 0,6.05935 -4.2937,11.02575 -10,12.1875 V 137 v 2.5 7.5 c 0,2.7614 0.2615,5 -2.5,5 -2.7614,0 -2.5,-2.2386 -2.5,-5 v -7.5 -2.5 -0.3125 c -5.7063,-1.16175 -10,-6.12815 -10,-12.1875 v -15 c 0,-6.06996 4.27871,-11.09973 10,-12.25 V 97 96 Z m 2.5,25 c -4.155,0 -7.5,3.345 -7.5,7.5 v 15 c 0,4.155 3.345,7.5 7.5,7.5 4.155,0 7.5,-3.345 7.5,-7.5 v -15 c 0,-4.155 -3.345,-7.5 -7.5,-7.5 z" />
      <path
         id="rect131-6-5"
         style="display:inline;fill:#ffffff;fill-opacity:1;fill-rule:evenodd;stroke-width:0.569275;enable-background:new"
         d="M 151.50001,165 H 169 v 50 H 151.50001 Z M 119,165 h 17.50001 v 50 H 119 Z m 22.5,-89 c -27.6999,0 -50,26.76 -50,60 v 40 c 0,33.24 22.3001,60 50,60 h 5 c 27.6999,0 50,-26.76 50,-60 v -40 c 0,-33.24 -22.3001,-60 -50,-60 v 19 1 0.25 c 5.72129,1.15027 10,6.18004 10,12.25 v 15 c 0,6.05935 -4.2937,11.02575 -10,12.1875 V 136 v 2.5 7.5 c 0,2.7614 0.2615,5 -2.5,5 -2.7614,0 -2.5,-2.2386 -2.5,-5 v -7.5 -2.5 -0.3125 c -5.7063,-1.16175 -10,-6.12815 -10,-12.1875 v -15 c 0,-6.06996 4.27871,-11.09973 10,-12.25 V 96 95 Z m 2.5,25 c -4.155,0 -7.5,3.345 -7.5,7.5 v 15 c 0,4.155 3.345,7.5 7.5,7.5 4.155,0 7.5,-3.345 7.5,-7.5 v -15 c 0,-4.155 -3.345,-7.5 -7.5,-7.5 z" />
      <path
         id="rect131-6-56"
         style="display:inline;fill:#ffffff;fill-opacity:1;fill-rule:evenodd;stroke-width:0.238825;enable-background:new"
         d="m 339.3,78 h 7.7 v 20 h -7.7 z M 325,78 h 7.7 V 98 H 325 Z M 335.00001,44 C 323.92003,44 315,54.704005 315,67.999999 v 16 C 315,97.295995 323.92003,108 335.00001,108 H 337 c 11.07994,0 20,-10.704005 20,-24.000001 v -16 C 357,54.704005 348.07994,44 337,44 v 6.999977 1.000022 0.124958 c 2.28254,0.464756 4,2.451261 4,4.875065 v 5.999955 c 0,2.423805 -1.71746,4.41031 -4,4.875065 V 67.999999 69.000023 72 c 0,1.104522 0.10459,1.999995 -0.99997,1.999995 -1.10462,0 -1.00001,-0.895473 -1.00001,-1.999995 V 69.000023 67.999999 67.875042 C 332.71753,67.410287 331,65.423782 331,62.999977 v -5.999955 c 0,-2.423804 1.71752,-4.410309 4.00002,-4.875065 V 51.999999 50.999977 44 Z m 1.00002,10.000005 c -1.66207,0 -3.00003,1.337955 -3.00003,3.000017 v 5.999955 c 0,1.662063 1.33796,3.000028 3.00003,3.000028 1.66197,0 2.99997,-1.337965 2.99997,-3.000028 v -5.999955 c 0,-1.662062 -1.338,-3.000017 -2.99997,-3.000017 z" />
      <path
         id="path1071"
         style="display:inline;fill:#000000;fill-opacity:1;fill-rule:evenodd;stroke-width:0.176385;enable-background:new;opacity:0.2"
         d="M 322.89999,174 H 328.5 v 15 h -5.60001 z M 312.5,174 h 5.6 v 15 h -5.6 z m 7.5,-23 c -5.53998,0 -14,3 -14,16 v 12 c 0,12 8.46002,16 14,16 h 1 c 5.53998,0 14,-4 14,-16 v -12 c 0,-12 -8.46002,-16 -14,-16 v 5 c 2,0 3,2.3125 3,4 v 4 c 0,3.5 -3,4 -3,3.9375 V 168 v 0.5 1.5 c 0,0.55228 0.0523,1 -0.5,1 -0.55228,0 -0.5,-0.44772 -0.5,-1 v -1.5 -0.5 -0.0625 c 0,0 -3,-0.46875 -3,-3.9375 v -4 c -0.0625,-2.46875 1.59375,-4.03125 3,-4 z m 0.5,6 c -0.831,0 -2.5,0.625 -2.5,3 v 4 c 0,2.40625 1.669,3 2.5,3 0.831,0 2.5,-0.46875 2.5,-3 v -4 c 0,-2.59375 -1.669,-3 -2.5,-3 z" />
      <path
         id="rect131-6-9"
         style="display:inline;fill:#ffffff;fill-opacity:1;fill-rule:evenodd;stroke-width:0.176385;enable-background:new"
         d="M 322.89999,173 H 328.5 v 15 h -5.60001 z M 312.5,173 h 5.6 v 15 h -5.6 z m 7.5,-23 c -5.53998,0 -14,3 -14,16 v 12 c 0,12 8.46002,16 14,16 h 1 c 5.53998,0 14,-4 14,-16 v -12 c 0,-12 -8.46002,-16 -14,-16 v 5 c 2,0 3,2.3125 3,4 v 4 c 0,3.5 -3,4 -3,3.9375 V 167 v 0.5 1.5 c 0,0.55228 0.0523,1 -0.5,1 -0.55228,0 -0.5,-0.44772 -0.5,-1 v -1.5 -0.5 -0.0625 c 0,0 -3,-0.46875 -3,-3.9375 v -4 c -0.0625,-2.46875 1.59375,-4.03125 3,-4 z m 0.5,6 c -0.831,0 -2.5,0.625 -2.5,3 v 4 c 0,2.40625 1.669,3 2.5,3 0.831,0 2.5,-0.46875 2.5,-3 v -4 c 0,-2.59375 -1.669,-3 -2.5,-3 z" />
      <path
         id="rect131-6-2"
         style="display:inline;fill:#ffffff;fill-opacity:1;fill-rule:evenodd;stroke-width:0.10247;enable-background:new"
         d="M 312.85,245 H 316 v 9 h -3.15 z m -5.85,0 h 3.15 v 9 H 307 Z m 4,-15 c -4.25189,0 -8,4.24651 -8,10 v 8 c 0,5.75349 3.74811,10 8,10 h 1 c 4.25189,0 8,-4.24651 8,-10 v -8 c 0,-5.75349 -3.74811,-10 -8,-10 v 1.5 0.5 0.0625 c 1.14126,0.23235 2,1.22563 2,2.4375 v 3 c 0,1.21187 -0.85874,2.20515 -2,2.4375 V 240 v 0.5 1.5 c 0,0.55228 0.0523,1 -0.5,1 -0.55228,0 -0.5,-0.44772 -0.5,-1 v -1.5 -0.5 -0.0625 c -1.14126,-0.23235 -2,-1.22563 -2,-2.4375 v -3 c 0,-1.21187 0.85874,-2.20515 2,-2.4375 V 232 231.5 Z m 0.5,3 c -0.831,0 -1.5,0.669 -1.5,1.5 v 3 c 0,0.831 0.669,1.5 1.5,1.5 0.831,0 1.5,-0.669 1.5,-1.5 v -3 c 0,-0.831 -0.669,-1.5 -1.5,-1.5 z" />
      <path
         id="path1149"
         style="display:inline;opacity:0.2;fill:#000000;fill-opacity:1;enable-background:new"
         d="m 432.5,70 h 2.5 v 7 h -2.5 z m -4.5,0 h 2.5 v 7 H 428 Z m 3,-10 c -3.46249,0 -6,3.345 -6,7.5 v 5 c 0,4.155 2.53751,7.5 6,7.5 h 1 c 3.46249,0 6,-3.345 6,-7.5 v -5 c 0,-4.155 -2.53751,-7.5 -6,-7.5 v 2.5 c 0.6925,0 1,0.5575 1,1.25 v 2.5 c 0,0.6925 -0.3075,1.25 -1,1.25 v 1.25 c 0,0.345175 -0.27982,0.625 -0.625,0.625 -0.34518,0 -0.375,-0.279825 -0.375,-0.625 V 67.5 c -0.6925,0 -1,-0.5575 -1,-1.25 v -2.5 c 0,-0.6925 0.3075,-1.25 1,-1.25 z m 0.375,3.75 c -0.34625,0 -0.375,0.27875 -0.375,0.625 v 1.25 c 0,0.34625 0.0288,0.625 0.375,0.625 0.34625,0 0.625,-0.27875 0.625,-0.625 v -1.25 c 0,-0.34625 -0.27875,-0.625 -0.625,-0.625 z" />
      <path
         id="rect1126-9"
         style="display:inline;opacity:1;fill:#ffffff;fill-opacity:1;enable-background:new"
         d="m 432.5,68 h 2.5 v 7 h -2.5 z m -4.5,0 h 2.5 v 7 H 428 Z m 3,-10 c -3.46249,0 -6,3.345 -6,7.5 v 5 c 0,4.155 2.53751,7.5 6,7.5 h 1 c 3.46249,0 6,-3.345 6,-7.5 v -5 c 0,-4.155 -2.53751,-7.5 -6,-7.5 v 2.5 c 0.6925,0 1,0.5575 1,1.25 v 2.5 c 0,0.6925 -0.3075,1.25 -1,1.25 v 1.25 c 0,0.345175 -0.27982,0.625 -0.625,0.625 -0.34518,0 -0.375,-0.279825 -0.375,-0.625 V 65.5 c -0.6925,0 -1,-0.5575 -1,-1.25 v -2.5 c 0,-0.6925 0.3075,-1.25 1,-1.25 z m 0.375,3.75 c -0.34625,0 -0.375,0.27875 -0.375,0.625 v 1.25 c 0,0.34625 0.0288,0.625 0.375,0.625 0.34625,0 0.625,-0.27875 0.625,-0.625 v -1.25 c 0,-0.34625 -0.27875,-0.625 -0.625,-0.625 z" />
      <path
         id="path1174"
         style="display:inline;opacity:0.2;fill:#000000;fill-opacity:1;enable-background:new"
         d="m 428.5,113 h 2 v 6 h -2 z m -4,0 h 2 v 6 h -2 z m 2.5,-8 c -2.76999,0 -5,2.676 -5,6 v 4 c 0,3.324 2.23001,6 5,6 h 1 c 2.76999,0 5,-2.676 5,-6 v -4 c 0,-3.324 -2.23001,-6 -5,-6 v 2 c 0.554,0 1,0.446 1,1 v 2 c 0,0.554 -0.446,1 -1,1 v 1 c 0,0.27614 -0.22386,0.5 -0.5,0.5 -0.27614,0 -0.5,-0.22386 -0.5,-0.5 v -1 c -0.554,0 -1,-0.446 -1,-1 v -2 c 0,-0.554 0.446,-1 1,-1 z m 0.5,3 c -0.277,0 -0.5,0.223 -0.5,0.5 v 1 c 0,0.277 0.223,0.5 0.5,0.5 0.277,0 0.5,-0.223 0.5,-0.5 v -1 c 0,-0.277 -0.223,-0.5 -0.5,-0.5 z" />
      <path
         id="rect1151-3"
         style="display:inline;opacity:1;fill:#ffffff;fill-opacity:1;enable-background:new"
         d="m 428.5,112 h 2 v 6 h -2 z m -4,0 h 2 v 6 h -2 z m 2.5,-8 c -2.76999,0 -5,2.676 -5,6 v 4 c 0,3.324 2.23001,6 5,6 h 1 c 2.76999,0 5,-2.676 5,-6 v -4 c 0,-3.324 -2.23001,-6 -5,-6 v 2 c 0.554,0 1,0.446 1,1 v 2 c 0,0.554 -0.446,1 -1,1 v 1 c 0,0.27614 -0.22386,0.5 -0.5,0.5 -0.27614,0 -0.5,-0.22386 -0.5,-0.5 v -1 c -0.554,0 -1,-0.446 -1,-1 v -2 c 0,-0.554 0.446,-1 1,-1 z m 0.5,3 c -0.277,0 -0.5,0.223 -0.5,0.5 v 1 c 0,0.277 0.223,0.5 0.5,0.5 0.277,0 0.5,-0.223 0.5,-0.5 v -1 c 0,-0.277 -0.223,-0.5 -0.5,-0.5 z" />
    </g>
    <g
       inkscape:groupmode="layer"
       id="layer5"
       inkscape:label="Highlights"
       style="display:inline"
       sodipodi:insensitive="true">
      <path
         style="opacity:0.13000004;color:#bebebe;fill:#ffffff;fill-opacity:1;fill-rule:nonzero;stroke:none;stroke-width:0;marker:none;visibility:visible;display:inline;overflow:visible;enable-background:accumulate"
         d="M 84,47 C 56.836703,47 35,68.836703 35,96 l 0,1 C 35,69.836703 56.836703,48 84,48 l 120,0 c 27.1633,0 49,21.836703 49,49 l 0,-1 C 253,68.836703 231.1633,47 204,47 L 84,47 z"
         id="rect3894"
         inkscape:connector-curvature="0" />
      <path
         style="opacity:0.13000004;color:#bebebe;fill:#ffffff;fill-opacity:1;fill-rule:nonzero;stroke:none;stroke-width:0;marker:none;visibility:visible;display:inline;overflow:visible;enable-background:accumulate"
         d="m 419,141 c -1.1253,0 -2,0.8747 -2,2 l 0,1 c 0,-1.1253 0.8747,-2 2,-2 l 10,0 c 1.1253,0 2,0.8747 2,2 l 0,-1 c 0,-1.1253 -0.8747,-2 -2,-2 l -10,0 z"
         id="rect3896"
         inkscape:connector-curvature="0" />
      <path
         style="opacity:0.13000004;color:#bebebe;fill:#ffffff;fill-opacity:1;fill-rule:nonzero;stroke:none;stroke-width:0;marker:none;visibility:visible;display:inline;overflow:visible;enable-background:accumulate"
         d="m 422,102 c -2.2333,0 -4,1.7667 -4,4 l 0,1 c 0,-2.2333 1.7667,-4 4,-4 l 12,0 c 2.2333,0 4,1.7667 4,4 l 0,-1 c 0,-2.2333 -1.7667,-4 -4,-4 l -12,0 z"
         id="rect3898"
         inkscape:connector-curvature="0" />
      <path
         style="opacity:0.13000004;color:#bebebe;fill:#ffffff;fill-opacity:1;fill-rule:nonzero;stroke:none;stroke-width:0;marker:none;visibility:visible;display:inline;overflow:visible;enable-background:accumulate"
         d="m 424,54 c -3.3413,0 -6,2.658703 -6,6 l 0,1 c 0,-3.341297 2.6587,-6 6,-6 l 16,0 c 3.3413,0 6,2.658703 6,6 l 0,-1 c 0,-3.341297 -2.6587,-6 -6,-6 l -16,0 z"
         id="rect3900"
         inkscape:connector-curvature="0" />
      <path
         style="opacity:0.13000004;color:#bebebe;fill:#ffffff;fill-opacity:1;fill-rule:nonzero;stroke:none;stroke-width:0;marker:none;visibility:visible;display:inline;overflow:visible;enable-background:accumulate"
         d="m 300,224 c -4.4493,0 -8,3.5507 -8,8 l 0,1 c 0,-4.4493 3.5507,-8 8,-8 l 24,0 c 4.4493,0 8,3.5507 8,8 l 0,-1 c 0,-4.4493 -3.5507,-8 -8,-8 l -24,0 z"
         id="rect3902"
         inkscape:connector-curvature="0" />
      <path
         style="opacity:0.13000004;color:#bebebe;fill:#ffffff;fill-opacity:1;fill-rule:nonzero;stroke:none;stroke-width:0;marker:none;visibility:visible;display:inline;overflow:visible;enable-background:accumulate"
         d="m 310,33 c -9.4353,0 -17,7.564703 -17,17 l 0,1 c 0,-9.435297 7.5647,-17 17,-17 l 52,0 c 9.4353,0 17,7.564703 17,17 l 0,-1 c 0,-9.435297 -7.5647,-17 -17,-17 l -52,0 z"
         id="rect3904"
         inkscape:connector-curvature="0" />
      <path
         style="opacity:0.13000004;color:#bebebe;fill:#ffffff;fill-opacity:1;fill-rule:nonzero;stroke:none;stroke-width:0;marker:none;visibility:visible;display:inline;overflow:visible;enable-background:accumulate"
         d="m 302.5,143 c -6.3883,0 -11.5,5.1117 -11.5,11.5 l 0,1 c 0,-6.3883 5.1117,-11.5 11.5,-11.5 l 35,0 c 6.3883,0 11.5,5.1117 11.5,11.5 l 0,-1 c 0,-6.3883 -5.1117,-11.5 -11.5,-11.5 l -35,0 z"
         id="rect3906"
         inkscape:connector-curvature="0" />
      <path
         id="path4085"
         d="m 204,266 c 27.1633,0 49,-21.8367 49,-49 l 0,-1 c 0,27.1633 -21.8367,49 -49,49 L 84,265 C 56.8367,265 35,243.1633 35,216 l 0,1 c 0,27.1633 21.8367,49 49,49 l 120,0 z"
         style="opacity:0.41;color:#bebebe;fill:#000000;fill-opacity:1;fill-rule:nonzero;stroke:none;stroke-width:0;marker:none;visibility:visible;display:inline;overflow:visible;enable-background:accumulate"
         inkscape:connector-curvature="0" />
      <path
         id="path4087"
         d="m 429,156 c 1.1253,0 2,-0.8747 2,-2 l 0,-1 c 0,1.1253 -0.8747,2 -2,2 l -10,0 c -1.1253,0 -2,-0.8747 -2,-2 l 0,1 c 0,1.1253 0.8747,2 2,2 l 10,0 z"
         style="opacity:0.3;color:#bebebe;fill:#000000;fill-opacity:1;fill-rule:nonzero;stroke:none;stroke-width:0;marker:none;visibility:visible;display:inline;overflow:visible;enable-background:accumulate"
         inkscape:connector-curvature="0" />
      <path
         id="path4089"
         d="m 434,123 c 2.2333,0 4,-1.7667 4,-4 l 0,-1 c 0,2.2333 -1.7667,4 -4,4 l -12,0 c -2.2333,0 -4,-1.7667 -4,-4 l 0,1 c 0,2.2333 1.7667,4 4,4 l 12,0 z"
         style="opacity:0.3;color:#bebebe;fill:#000000;fill-opacity:1;fill-rule:nonzero;stroke:none;stroke-width:0;marker:none;visibility:visible;display:inline;overflow:visible;enable-background:accumulate"
         inkscape:connector-curvature="0" />
      <path
         id="path4091"
         d="m 440,83 c 3.3413,0 6,-2.6587 6,-6 l 0,-1 c 0,3.3413 -2.6587,6 -6,6 l -16,0 c -3.3413,0 -6,-2.6587 -6,-6 l 0,1 c 0,3.3413 2.6587,6 6,6 l 16,0 z"
         style="opacity:0.41;color:#bebebe;fill:#000000;fill-opacity:1;fill-rule:nonzero;stroke:none;stroke-width:0;marker:none;visibility:visible;display:inline;overflow:visible;enable-background:accumulate"
         inkscape:connector-curvature="0" />
      <path
         id="path4093"
         d="m 324,265 c 4.4493,0 8,-3.5507 8,-8 l 0,-1 c 0,4.4493 -3.5507,8 -8,8 l -24,0 c -4.4493,0 -8,-3.5507 -8,-8 l 0,1 c 0,4.4493 3.5507,8 8,8 l 24,0 z"
         style="opacity:0.41;color:#bebebe;fill:#000000;fill-opacity:1;fill-rule:nonzero;stroke:none;stroke-width:0;marker:none;visibility:visible;display:inline;overflow:visible;enable-background:accumulate"
         inkscape:connector-curvature="0" />
      <path
         id="path4095"
         d="m 362,120 c 9.4353,0 17,-7.5647 17,-17 l 0,-1 c 0,9.4353 -7.5647,17 -17,17 l -52,0 c -9.4353,0 -17,-7.5647 -17,-17 l 0,1 c 0,9.4353 7.5647,17 17,17 l 52,0 z"
         style="opacity:0.41;color:#bebebe;fill:#000000;fill-opacity:1;fill-rule:nonzero;stroke:none;stroke-width:0;marker:none;visibility:visible;display:inline;overflow:visible;enable-background:accumulate"
         inkscape:connector-curvature="0" />
      <path
         id="path4097"
         d="m 337.5,202 c 6.3883,0 11.5,-5.1117 11.5,-11.5 l 0,-1 c 0,6.3883 -5.1117,11.5 -11.5,11.5 l -35,0 c -6.3883,0 -11.5,-5.1117 -11.5,-11.5 l 0,1 c 0,6.3883 5.1117,11.5 11.5,11.5 l 35,0 z"
         style="opacity:0.41;color:#bebebe;fill:#000000;fill-opacity:1;fill-rule:nonzero;stroke:none;stroke-width:0;marker:none;visibility:visible;display:inline;overflow:visible;enable-background:accumulate"
         inkscape:connector-curvature="0" />
      <path
         inkscape:connector-curvature="0"
         id="path4280"
         d="M 84,265 C 56.836703,265 35,243.1633 35,216 l 0,-1 c 0,27.1633 21.836703,49 49,49 l 120,0 c 27.1633,0 49,-21.8367 49,-49 l 0,1 c 0,27.1633 -21.8367,49 -49,49 l -120,0 z"
         style="opacity:0.1;color:#bebebe;fill:#ffffff;fill-opacity:1;fill-rule:nonzero;stroke:none;stroke-width:0;marker:none;visibility:visible;display:inline;overflow:visible;enable-background:accumulate" />
      <path
         style="opacity:0.1;color:#bebebe;fill:#ffffff;fill-opacity:1;fill-rule:nonzero;stroke:none;stroke-width:0;marker:none;visibility:visible;display:inline;overflow:visible;enable-background:accumulate"
         d="m 300,264 c -4.4493,0 -8,-3.5507 -8,-8 l 0,-1 c 0,4.4493 3.5507,8 8,8 l 24,0 c 4.4493,0 8,-3.5507 8,-8 l 0,1 c 0,4.4493 -3.5507,8 -8,8 l -24,0 z"
         id="path4294"
         inkscape:connector-curvature="0" />
      <path
         style="opacity:0.1;color:#bebebe;fill:#ffffff;fill-opacity:1;fill-rule:nonzero;stroke:none;stroke-width:0;marker:none;visibility:visible;display:inline;overflow:visible;enable-background:accumulate"
         d="m 302.5,201 c -6.3883,0 -11.5,-5.1117 -11.5,-11.5 l 0,-1 c 0,6.3883 5.1117,11.5 11.5,11.5 l 35,0 c 6.3883,0 11.5,-5.1117 11.5,-11.5 l 0,1 c 0,6.3883 -5.1117,11.5 -11.5,11.5 l -35,0 z"
         id="path4296"
         inkscape:connector-curvature="0" />
      <path
         style="opacity:0.1;color:#bebebe;fill:#ffffff;fill-opacity:1;fill-rule:nonzero;stroke:none;stroke-width:0;marker:none;visibility:visible;display:inline;overflow:visible;enable-background:accumulate"
         d="m 310,119 c -9.4353,0 -17,-7.5647 -17,-17 l 0,-1 c 0,9.4353 7.5647,17 17,17 l 52,0 c 9.4353,0 17,-7.5647 17,-17 l 0,1 c 0,9.4353 -7.5647,17 -17,17 l -52,0 z"
         id="path4298"
         inkscape:connector-curvature="0" />
      <path
         style="opacity:0.1;color:#bebebe;fill:#ffffff;fill-opacity:1;fill-rule:nonzero;stroke:none;stroke-width:0;marker:none;visibility:visible;display:inline;overflow:visible;enable-background:accumulate"
         d="m 424,82 c -3.3413,0 -6,-2.658703 -6,-6 l 0,-1 c 0,3.341297 2.6587,6 6,6 l 16,0 c 3.3413,0 6,-2.658703 6,-6 l 0,1 c 0,3.341297 -2.6587,6 -6,6 l -16,0 z"
         id="path4300"
         inkscape:connector-curvature="0" />
      <path
         style="opacity:0.1;color:#bebebe;fill:#ffffff;fill-opacity:1;fill-rule:nonzero;stroke:none;stroke-width:0;marker:none;visibility:visible;display:inline;overflow:visible;enable-background:accumulate"
         d="m 422,122 c -2.2333,0 -4,-1.7667 -4,-4 l 0,-1 c 0,2.2333 1.7667,4 4,4 l 12,0 c 2.2333,0 4,-1.7667 4,-4 l 0,1 c 0,2.2333 -1.7667,4 -4,4 l -12,0 z"
         id="path4302"
         inkscape:connector-curvature="0" />
      <path
         style="opacity:0.1;color:#bebebe;fill:#ffffff;fill-opacity:1;fill-rule:nonzero;stroke:none;stroke-width:0;marker:none;visibility:visible;display:inline;overflow:visible;enable-background:accumulate"
         d="m 419,154.5 c -1.1253,0 -2,-0.8747 -2,-2 l 0,-1 c 0,1.1253 0.8747,2 2,2 l 10,0 c 1.1253,0 2,-0.8747 2,-2 l 0,1 c 0,1.1253 -0.8747,2 -2,2 l -10,0 z"
         id="path4304"
         inkscape:connector-curvature="0" />
    </g>
    <g
       inkscape:groupmode="layer"
       id="layer3"
       inkscape:label="Border"
       style="display:inline"
       sodipodi:insensitive="true">
      <path
         style="opacity:0.41;color:#bebebe;fill:#000000;fill-opacity:1;fill-rule:nonzero;stroke:none;stroke-width:0;marker:none;visibility:visible;display:inline;overflow:visible;enable-background:accumulate"
         d="m 422,101 c -2.77,0 -5,2.23 -5,5 l 0,12 c 0,2.77 2.23,5 5,5 l 12,0 c 2.77,0 5,-2.23 5,-5 l 0,-12 c 0,-2.77 -2.23,-5 -5,-5 l -12,0 z m 0,1 12,0 c 2.2333,0 4,1.7667 4,4 l 0,12 c 0,2.2333 -1.7667,4 -4,4 l -12,0 c -2.2333,0 -4,-1.7667 -4,-4 l 0,-12 c 0,-2.2333 1.7667,-4 4,-4 z"
         id="rect4099"
         inkscape:connector-curvature="0" />
      <path
         style="opacity:0.41;color:#bebebe;fill:#000000;fill-opacity:1;fill-rule:nonzero;stroke:none;stroke-width:0;marker:none;visibility:visible;display:inline;overflow:visible;enable-background:accumulate"
         d="m 424,53 c -3.878,0 -7,3.122 -7,7 l 0,16 c 0,3.878 3.122,7 7,7 l 16,0 c 3.878,0 7,-3.122 7,-7 l 0,-16 c 0,-3.878 -3.122,-7 -7,-7 l -16,0 z m 0,1 16,0 c 3.3413,0 6,2.658703 6,6 l 0,16 c 0,3.341297 -2.6587,6 -6,6 l -16,0 c -3.3413,0 -6,-2.658703 -6,-6 l 0,-16 c 0,-3.341297 2.6587,-6 6,-6 z"
         id="rect4151"
         inkscape:connector-curvature="0" />
      <path
         style="opacity:0.41;color:#bebebe;fill:#000000;fill-opacity:1;fill-rule:nonzero;stroke:none;stroke-width:0;marker:none;visibility:visible;display:inline;overflow:visible;enable-background:accumulate"
         d="m 419,140 c -1.662,0 -3,1.338 -3,3 l 0,10 c 0,1.662 1.338,3 3,3 l 10,0 c 1.662,0 3,-1.338 3,-3 l 0,-10 c 0,-1.662 -1.338,-3 -3,-3 l -10,0 z m 0,1 10,0 c 1.1253,0 2,0.8747 2,2 l 0,10 c 0,1.1253 -0.8747,2 -2,2 l -10,0 c -1.1253,0 -2,-0.8747 -2,-2 l 0,-10 c 0,-1.1253 0.8747,-2 2,-2 z"
         id="rect4095"
         inkscape:connector-curvature="0" />
      <path
         style="opacity:0.41;color:#bebebe;fill:#000000;fill-opacity:1;fill-rule:nonzero;stroke:none;stroke-width:0;marker:none;visibility:visible;display:inline;overflow:visible;enable-background:accumulate"
         d="m 300,223 c -4.986,0 -9,4.014 -9,9 l 0,24 c 0,4.986 4.014,9 9,9 l 24,0 c 4.986,0 9,-4.014 9,-9 l 0,-24 c 0,-4.986 -4.014,-9 -9,-9 l -24,0 z m 0,1 24,0 c 4.4493,0 8,3.5507 8,8 l 0,24 c 0,4.4493 -3.5507,8 -8,8 l -24,0 c -4.4493,0 -8,-3.5507 -8,-8 l 0,-24 c 0,-4.4493 3.5507,-8 8,-8 z"
         id="rect4783"
         inkscape:connector-curvature="0" />
      <path
         style="opacity:0.41;color:#bebebe;fill:#000000;fill-opacity:1;fill-rule:nonzero;stroke:none;stroke-width:0;marker:none;visibility:visible;display:inline;overflow:visible;enable-background:accumulate"
         d="m 302.5,142 c -6.925,0 -12.5,5.575 -12.5,12.5 l 0,35 c 0,6.925 5.575,12.5 12.5,12.5 l 35,0 c 6.925,0 12.5,-5.575 12.5,-12.5 l 0,-35 c 0,-6.925 -5.575,-12.5 -12.5,-12.5 l -35,0 z m 0,1 35,0 c 6.3883,0 11.5,5.1117 11.5,11.5 l 0,35 c 0,6.3883 -5.1117,11.5 -11.5,11.5 l -35,0 c -6.3883,0 -11.5,-5.1117 -11.5,-11.5 l 0,-35 c 0,-6.3883 5.1117,-11.5 11.5,-11.5 z"
         id="rect4515"
         inkscape:connector-curvature="0" />
      <path
         style="opacity:0.41;color:#bebebe;fill:#000000;fill-opacity:1;fill-rule:nonzero;stroke:none;stroke-width:0;marker:none;visibility:visible;display:inline;overflow:visible;enable-background:accumulate"
         d="m 310,32 c -9.972,0 -18,8.028 -18,18 l 0,52 c 0,9.972 8.028,18 18,18 l 52,0 c 9.972,0 18,-8.028 18,-18 l 0,-52 c 0,-9.972 -8.028,-18 -18,-18 l -52,0 z m 0,1 52,0 c 9.4353,0 17,7.564703 17,17 l 0,52 c 0,9.4353 -7.5647,17 -17,17 l -52,0 c -9.4353,0 -17,-7.5647 -17,-17 l 0,-52 c 0,-9.435297 7.5647,-17 17,-17 z"
         id="rect4511"
         inkscape:connector-curvature="0" />
      <path
         style="opacity:0.41;color:#bebebe;fill:#000000;fill-opacity:1;fill-rule:nonzero;stroke:none;stroke-width:0;marker:none;visibility:visible;display:inline;overflow:visible;enable-background:accumulate"
         d="M 84,46 C 56.3,46 34,68.3 34,96 l 0,120 c 0,27.7 22.3,50 50,50 l 120,0 c 27.7,0 50,-22.3 50,-50 L 254,96 C 254,68.3 231.7,46 204,46 L 84,46 z m 0,1 120,0 c 27.1633,0 49,21.836703 49,49 l 0,120 c 0,27.1633 -21.8367,49 -49,49 L 84,265 C 56.836703,265 35,243.1633 35,216 L 35,96 C 35,68.836703 56.836703,47 84,47 z"
         id="rect4040"
         inkscape:connector-curvature="0" />
    </g>
  </g>
</svg>
